/* XPM */
static char *logo__[] = {
/* columns rows colors chars-per-pixel */
"64 64 256 2",
"   c #010000",
".  c #0B0000",
"X  c #06080B",
"o  c #130000",
"O  c #1B0000",
"+  c #140B0D",
"@  c #070C15",
"#  c #171819",
"$  c #230000",
"%  c #2B0000",
"&  c #220E0E",
"*  c #330000",
"=  c #3B0000",
"-  c #2B1618",
";  c #0B1526",
":  c #171A24",
">  c #0C1B37",
",  c #311E29",
"<  c #172437",
"1  c #1A2027",
"2  c #2D2B33",
"3  c #440000",
"4  c #4A0000",
"5  c #540000",
"6  c #5A0000",
"7  c #58181B",
"8  c #630000",
"9  c #6C0000",
"0  c #730000",
"q  c #7B0000",
"w  c #770903",
"e  c #761C1E",
"r  c #5A3132",
"t  c #6F282F",
"y  c #0E2348",
"u  c #1B2B4A",
"i  c #0E295F",
"p  c #122B57",
"a  c #1E365F",
"s  c #262C46",
"d  c #213348",
"f  c #253656",
"g  c #343D50",
"h  c #0D2A63",
"j  c #0C2761",
"k  c #112C62",
"l  c #1B3463",
"z  c #163466",
"x  c #143778",
"c  c #0F3379",
"v  c #243C65",
"b  c #223F76",
"n  c #70384F",
"m  c #51374E",
"M  c #2B4769",
"N  c #2A4572",
"B  c #384E71",
"V  c #4C4B54",
"C  c #495677",
"Z  c #535571",
"A  c #6B546C",
"S  c #6E5770",
"D  c #5B6574",
"F  c #78667B",
"G  c #717070",
"H  c #7B4243",
"J  c #830000",
"K  c #8B0100",
"L  c #940100",
"P  c #9D0200",
"I  c #9E0D08",
"U  c #95140B",
"Y  c #A30101",
"T  c #AC0200",
"R  c #AD0B08",
"E  c #B30200",
"W  c #B30C03",
"Q  c #BC0B03",
"!  c #BB0601",
"~  c #A71908",
"^  c #B81306",
"/  c #BA1E13",
"(  c #A91C1F",
")  c #91280E",
"_  c #BD270E",
"`  c #B22F19",
"'  c #A31E21",
"]  c #933036",
"[  c #A32428",
"{  c #9E1E23",
"}  c #C21306",
"|  c #C41608",
" . c #C61B09",
".. c #C81D0A",
"X. c #C10E04",
"o. c #CB240D",
"O. c #CF2A0F",
"+. c #C5250D",
"@. c #D02E10",
"#. c #CD3714",
"$. c #D33412",
"%. c #D73A15",
"&. c #D83E16",
"*. c #C92E10",
"=. c #BA491A",
"-. c #AB711B",
";. c #DA4117",
":. c #DC4518",
">. c #DE491A",
",. c #D65118",
"<. c #E14E1C",
"1. c #E3531E",
"2. c #E4581E",
"3. c #E65B20",
"4. c #E85E21",
"5. c #D37528",
"6. c #EB6323",
"7. c #EE6A26",
"8. c #E16126",
"9. c #F06D27",
"0. c #F16F28",
"q. c #EE7921",
"w. c #F37329",
"e. c #F57B2A",
"r. c #F57C2A",
"t. c #DD5620",
"y. c #9C3C40",
"u. c #8B474B",
"i. c #954F57",
"p. c #A15658",
"a. c #8F5B64",
"s. c #9B7678",
"d. c #8D6771",
"f. c #A57475",
"g. c #A8991A",
"h. c #B39715",
"j. c #A59D2B",
"k. c #CAB119",
"l. c #FA832E",
"z. c #FB8D2D",
"x. c #F38825",
"c. c #FB942C",
"v. c #FC9A2B",
"b. c #F59826",
"n. c #F58828",
"m. c #FCAE26",
"M. c #FCA429",
"N. c #FAA728",
"B. c #FBBB22",
"V. c #F9B425",
"C. c #FACB1D",
"Z. c #FAD31C",
"A. c #F9DB19",
"S. c #F8E419",
"D. c #FBC221",
"F. c #FACA27",
"G. c #F9D926",
"H. c #F7D333",
"J. c #F8ED22",
"K. c #F8E82A",
"L. c #F9E537",
"P. c #F8F038",
"I. c #F8F02F",
"U. c #DBC51C",
"Y. c #ABA86E",
"T. c #F5D750",
"R. c #F8EC45",
"E. c #F8F14C",
"W. c #F8F143",
"Q. c #F8F154",
"!. c #F8F25B",
"~. c #F8ED5B",
"^. c #F8F265",
"/. c #F8F378",
"(. c #EFE960",
"). c #CDC85D",
"_. c #143985",
"`. c #153F93",
"'. c #1C4389",
"]. c #194496",
"[. c #2B5596",
"{. c #355793",
"}. c #2C4E8B",
"|. c #1747A5",
" X c #1A4FB0",
".X c #375CA3",
"XX c #2556B3",
"oX c #2959AD",
"OX c #356CBC",
"+X c #366BB3",
"@X c #455889",
"#X c #585F89",
"$X c #4F6C97",
"%X c #656889",
"&X c #776A85",
"*X c #73738B",
"=X c #677A99",
"-X c #787A97",
";X c #67708F",
":X c #436CAB",
">X c #4C73A8",
",X c #677AA2",
"<X c #857789",
"1X c #857C99",
"2X c #977C82",
"3X c #76829B",
"4X c #5581AF",
"5X c #768AA5",
"6X c #6E90B1",
"7X c #5998D9",
"8X c #4D86CA",
"9X c #6B9CC8",
"0X c #77ACD7",
"qX c #67A7E6",
"wX c #71B5ED",
"eX c #70B3EB",
"rX c #5C9DE2",
"tX c #9A828B",
"yX c #888798",
"uX c #968B95",
"iX c #949594",
"pX c #A3868A",
"aX c #A79297",
"sX c #ACAA90",
"dX c #9A9CA7",
"fX c #8996AC",
"gX c #91A4BA",
"hX c #A9A2A9",
"jX c #BDBABA",
"kX c #B2B0B1",
"lX c #AF9DA0",
"zX c #C0BDB0",
"xX c #F8F388",
"cX c #F8F496",
"vX c #E8E482",
"bX c #D4D2A9",
"nX c #F8F5A7",
"mX c #F8F5B7",
"MX c #E9E7AC",
"NX c #86A7C6",
"BX c #90B1D0",
"VX c #A9B7C9",
"CX c #84BCEB",
"ZX c #91C6EF",
"AX c #B3CBE6",
"SX c #B1D4F1",
"DX c #AAC0D3",
"FX c #CCCED3",
"GX c #F9F6C8",
"HX c #F9F7D3",
"JX c #EBE8C6",
"KX c #CAD4E9",
"LX c #D3E2F5",
"PX c #FEFEFE",
"IX c #E6EBF0",
"UX c None",
/* pixels */
"UXUXUXUXUXUXUXUXUXUXUXUXUXUXUXUXUXUXUXUXUXUXUXUXUXUXUX                    UXUXUXUXUXUXUXUXUXUXUXUXUXUXUXUXUXUXUXUXUXUXUXUXUXUXUX",
"UXUXUXUXUXUXUXUXUXUXUXUXUXUXUXUXUXUXUXUXUXUX                                        UXUXUXUXUXUXUXUXUXUXUXUXUXUXUXUXUXUXUXUXUXUX",
"UXUXUXUXUXUXUXUXUXUXUXUXUXUXUXUXUXUXUXUX                                                UXUXUXUXUXUXUXUXUXUXUXUXUXUXUXUXUXUXUXUX",
"UXUXUXUXUXUXUXUXUXUXUXUXUXUXUXUXUXUX                                                        UXUXUXUXUXUXUXUXUXUXUXUXUXUXUXUXUXUX",
"UXUXUXUXUXUXUXUXUXUXUXUXUXUXUXUX                                                                UXUXUXUXUXUXUXUXUXUXUXUXUXUXUXUX",
"UXUXUXUXUXUXUXUXUXUXUXUXUXUX                                                                        UXUXUXUXUXUXUXUXUXUXUXUXUXUX",
"UXUXUXUXUXUXUXUXUXUXUXUXUX                                                                            UXUXUXUXUXUXUXUXUXUXUXUXUX",
"UXUXUXUXUXUXUXUXUXUXUX                                                                                    UXUXUXUXUXUXUXUXUXUXUX",
"UXUXUXUXUXUXUXUXUXUX                                                                                        UXUXUXUXUXUXUXUXUXUX",
"UXUXUXUXUXUXUXUXUX                                                                                            UXUXUXUXUXUXUXUXUX",
"UXUXUXUXUXUXUXUX                                                                                                UXUXUXUXUXUXUXUX",
"UXUXUXUXUXUXUX                                                                                                    UXUXUXUXUXUXUX",
"UXUXUXUXUXUXUX                                                                                                    UXUXUXUXUXUXUX",
"UXUXUXUXUXUX                                                                                                        UXUXUXUXUXUX",
"UXUXUXUXUX                                                    X                                                       UXUXUXUXUX",
"UXUXUXUXUX                                            X ; > u u d d < : X                                             UXUXUXUXUX",
"UXUXUXUX                                          ; y z a a v v M M M M B g # X                                         UXUXUXUX",
"UXUXUXUX                                      @ p i i k p z z z b M M B B C C Z 1                                       UXUXUXUX",
"UXUXUX                                      > k h i p z x b '.[.[.[.[.{.{.C @X$X;XV                                       UXUXUX",
"UXUXUX                                    y k h h z x ].|.oXOXXXOXOX+X+X+X>X>X>X=X3XD X                                   UXUXUX",
"UXUX                                  X y h i j x ].|.].p ; @   @ 1 v +X8X8X8X>X4X5XfX;XX                                   UXUX",
"UXUX                                  > h h h c |.].>   X X     # D G V v 8X8X7X8X6XfXgXD .                                 UXUX",
"UX                                  @ h j j _.|.x X X     X . V IXPXPXPXFX2 :XrX7X9X0XVXVX2                                   UX",
"UX                                  p h j _.|.c X       X   # IXPXPXPXPXPXjX; >XrXqX0XBXAXgX                                  UX",
"UX                                ; l k c `.].X X   X       G PXPXPXPXPXPXPX, ; rXeXeXCXAXAXV X                               UX",
"UX                                p l z `. X>     .     X   G PXPXPXPXPXPXPXg   M qXwXCXSXKXkXX                               UX",
"                                X l z _.|.].X   .   X     X V PXPXPXPXPXPXPX# . @ qXwXCXSXLXIX#                                 ",
"                                ; f b `. Xp   .     X       + FXPXPXPXPXPXiXX   X >XwXCXZXLXIXD                                 ",
"                                < v b ].XX; X     X X         1 jXPXPXPXiXX       M wXCXZXLXIXyX                                ",
"                                s b }.].XX@                       2 2 #         X d wXZXZXSXLXdX                                ",
"                                s N }.}.oX.         . .                           < wXCXZXAXFXhX              .                 ",
"                                f B }.[.oX+ X   .                               X d 0XBXBXDXFXdX          .                     ",
"                .               s C }.{.oX; . .       .                           M 0X0XgXVXjXuXX           . .                 ",
"            . . . .             s C @X{..Xl . . .   .   .   .         . .   .   X >X0X0XgXkXbXG     .     . . .   . .           ",
"  .     . . O O .     .       . < Z @X@X:X{.X o . . . . .       .       . .   . # 9X9XgXgXkXkXV . .       . . . . .             ",
".     .   % 9 $ o . .     .   . + #X#X@X@X:Xs 7 & o o . . . .       . . .   . . C 9X6XfXgXkXkX& . .   . . . o o o . .   . .   . ",
"  .   . . 9 K $ o . . .   . . . o V #X#X$X:X1X2X2X, o o o . .   . . . . . . . < 6X6X6XfXdXlXtXo o . .   . o o o o . . . .   .   ",
". . . . o K J O o . .   . . . . o , %X%X#X>XVXaXf.r $ O o o . . . . . o o o # 4X6X5XfXiXaXaXr O o . . . o o O O o o . . . . . . ",
"UX. . . O L K $ O o o . . . . o O $ A &X,X>XfXhX2X7 * $ O o . . . . . o O 1 =X5X5XyXuXiXpXs.% O O o . . o O O O O o o . . . . UX",
"UXo o o O L Y * O o o . . o o O O % , &X1X,X,X-X%Xn 7 = % O o . . . o & V =X=X3X1X<XuXpXf.7 % $ O . . o o O O O O o O o o o o UX",
"UXo o o $ K E 6 $ O O o o o O O $ % $ V 1XyX-X;XS ] ] n m 2 , , 2 g Z %X;X*X*X-Xd.d.pXf.] = $ $ O o . o O $ $ $ O O O O O o o UX",
"UXo O O $ L Y L = $ O O o o O $ % $ O $ S 1X<X&XS { ( A S #X#X,X,X4X=X*X&X&Xd.a.] p.pXu.9 4 % O O o o O O $ $ $ $ $ $ $ $ O O UX",
"UXUX$ $ * Y K T 8 % $ O o o O % % $ $ O % A d.i.y.[ ` S d.&X&X-X3X3X3X<Xd.a.y./ +.p.a.5 q 5 % $ O O O O $ $ % % % % * % % $ UXUX",
"UXUX$ $ 3 E K T q = % $ O o O * * % $ $ * 6 { ( ] [ $.a.&X<X&X1XyXfXyX<Xa.y./ ;._ H * 6 J 9 4 % $ $ O $ $ $ % * % * 6 5 % $ UXUX",
"UXUX$ * 5 W | L L 6 * $ $ $ O % * % % % 5 P $...' [ / ,.a.<XtXyXiXuXuX2Xi./ @.o.U 3 3 8 L q 6 4 * % % % $ $ % = = = J 9 * $ UXUX",
"UXUXUX4 0 ^ @.2.I q 0 5 * $ O % 3 4 4 8 P %.4.+.L R R #.8.p.s.tXuXuX2Xs.y...I ..0 6 8 q P L L ~ U w 8 4 * * = 4 4 5 P 0 = UXUXUX",
"UXUXUX6 Y +.$.4.D.,.K 9 6 % $ % 8 W | +.&.4.4.R T ! Q Y r.6.[ u.u.u.H e P ^ ~ ^ J q J P E E L 1.c.c.x.:.~ q 8 5 6 q E 8 = UXUXUX",
"UXUXUXUXW $.$.%.V.W.x.I 8 % $ = P O.$.$.>.4.o.E } o...T #.b.;.K J P P P ^ ^ +.Q Y P T Q | | Y ~ l.w.n.c.w.$.J 9 q T T 9 UXUXUXUX",
"UXUXUXUX) :.$.$.q.P.H._ 8 % % 4 P ..Q } 6.$.! } o.$.o.! W v.>.T P !  .| o.T @.} X.X. .o.o.} T K t.w.$.$.o.I J L E | Y 8 UXUXUXUX",
"UXUXUXUXUX=.:.o.1.G.S.#.8 3 * 3 J ! E ^ 6.| | @.;.&. .E Y q.b.o.| O.&.&.o.T $.o.O.@.%.$.o.X.T L W q.q.@.W W Q  .o.o.P UXUXUXUXUX",
"UXUXUXUXUXUX>.| $.x.Z.>.0 5 4 4 J E E E 1.o.@.;.<.&...X.E ;.m.r.$.@.;.&.Q W &.&.:.<.>.%... .} ! ^ ;.M.M.w.3.;.;.&.O.UXUXUXUXUXUX",
"UXUXUXUXUXUX) O.Q :.C.2.L 5 4 8 +.2.;.Q %.$.>.<.<.&.O.o.o.3.B.z.w.&.o.o.E } <.<.3.3.1.:.o.$.&.&.<.6.c.C.c.e.7.2.<.) UXUXUXUXUXUX",
"UXUXUXUXUXUXUX) ..@.G.2.R 6 8 _ b.B.r.O. .<.1.4.1.<.%.&.<.9.m.v.9.1.o.} ! Q :.4.9.w.6.3.$.%.1.7.0.l.z.Z.m.e.7.6.` UXUXUXUXUXUXUX",
"UXUXUXUXUXUXUXUX~ @.K.N.&._ ,.B.S.S.v.&. .<.3.7.6.1.<.1.4.0.z.D.r.;.| X.! ! &.7.e.l.9.3.:.&.<.2.7.9.r.F.Z.c.w.=.UXUXUXUXUXUXUXUX",
"UXUXUXUXUXUXUXUXUX=.H.E.H.G.K.P.K.S.c.<.O.3.1.7.0.7.3.2.4.0.l.F.C.6.} E E | 3.l.v.z.0.6.1.1.1.3.6.r.H.V.S.m.5.UXUXUXUXUXUXUXUXUX",
"UXUXUXUXUXUXUXUXUXUXk.Q.Q.E.E.E.J.Z.c.4.1.6.3.7.e.e.w.0.w.v.T.H.m.b.<.@.&.6.z.m.V.c.w.0.7.9.z.m.T.~.B.c.K.k.UXUXUXUXUXUXUXUXUXUX",
"UXUXUXUXUXUXUXUXUXUXUXh.I.E.E.E.S.D.v.r.l.0.4.7.l.M.N.V.T.xX~.N.M.C.n.l.c.N.D.G.K.z.w.e.e.c.^.xX/.F.v.v.h.UXUXUXUXUXUXUXUXUXUXUX",
"UXUXUXUXUXUXUXUXUXUXUXUXj.(.^.!.S.C.B.M.l.9.6.9.z.R./.nXnXxXA.V.M.S.C.C.C.Z.R.xXR.z.e.z.z.H.!.xXK.B.V.g.UXUXUXUXUXUXUXUXUXUXUXUX",
"UXUXUXUXUXUXUXUXUXUXUXUXUXUX)./.Z.C.F.v.l.w.w.w.v./.xX/.cXR.S.B.m.Z.S.A.Z.W.cXmXL.v.M.B.F.R.Q.cXS.k.UXUXUXUXUXUXUXUXUXUXUXUXUXUX",
"UXUXUXUXUXUXUXUXUXUXUXUXUXUXUXY.(.V.V.B.m.c.l.e.M.^.!.mX/.P.J.Z.D.Z.S.A.K.xXmXGXW.L.P.E.!.I./.vXg.UXUXUXUXUXUXUXUXUXUXUXUXUXUXUX",
"UXUXUXUXUXUXUXUXUXUXUXUXUXUXUXUXUXg.c.v.m.v.z.l.B.^.Q.GXxX^.Q.S.A.S.J.W.^.cXGXGXL.L.E.P.K.K.Y.UXUXUXUXUXUXUXUXUXUXUXUXUXUXUXUXUX",
"UXUXUXUXUXUXUXUXUXUXUXUXUXUXUXUXUXUXUX-.q.l.l.M.G.Q.!.HXnXcX/.Q.J.S.I.Q.xXmXHXGX/.L.G.U.g.UXUXUXUXUXUXUXUXUXUXUXUXUXUXUXUXUXUXUX",
"UXUXUXUXUXUXUXUXUXUXUXUXUXUXUXUXUXUXUXUXUXUX-.k.I.I.cXHXGXmXmXxX^.!.Q./.nXGXHXGXbXY.UXUXUXUXUXUXUXUXUXUXUXUXUXUXUXUXUXUXUXUXUXUX",
"UXUXUXUXUXUXUXUXUXUXUXUXUXUXUXUXUXUXUXUXUXUXUXUXUXj.sXzXbXJXGXHXmXMXMXbXkXsXsXUXUXUXUXUXUXUXUXUXUXUXUXUXUXUXUXUXUXUXUXUXUXUXUXUX"
};
